# xmcd
#
# Track frame offsets: 
#        150
#        15677
#        30967
#        49456
#        64944
#        82593
#        97338
#        112242
#        128839
#        148486
#        161709
#        178022
#
# Disc length: 2665 seconds
#
# Revision: 0
# Processed by: cddbd v1.5.2PL0 Copyright (c) Steve Scherf et al.
# Submitted via: ExactAudioCopyFreeDBPlugin 1.0
#
DISCID=ac0a670c
DTITLE=Daniel Merriweather - Love and War
DYEAR=2009
DGENRE=Rhythmic Soul
TTITLE0=For Your Money
TTITLE1=Impossible
TTITLE2=Daniel Merriweather feat. Wale - Change [Explicit]
TTITLE3=Chainsaw
TTITLE4=Cigarettes
TTITLE5=Red
TTITLE6=Could You
TTITLE7=Not Giving Up
TTITLE8=Getting Out
TTITLE9=Daniel Merriweather feat. Adele - Water and a Flame
TTITLE10=Live By Night
TTITLE11=Giving Everything Away For Free
EXTD=
EXTT0=
EXTT1=
EXTT2=
EXTT3=
EXTT4=
EXTT5=
EXTT6=
EXTT7=
EXTT8=
EXTT9=
EXTT10=
EXTT11=
PLAYORDER=
